<svg xmlns="http://www.w3.org/2000/svg" xmlns:xlink="http://www.w3.org/1999/xlink" width="500" zoomAndPan="magnify" viewBox="0 0 375 52.499999" height="70" preserveAspectRatio="xMidYMid meet" version="1.0"><path fill="#ffffff" d="M 208.03125 20.121094 C 207.632812 20.148438 207.347656 20.195312 207.164062 20.273438 C 206.988281 20.34375 206.867188 20.484375 206.808594 20.695312 C 206.746094 20.90625 206.714844 21.246094 206.714844 21.714844 L 206.714844 30.90625 C 206.714844 31.375 206.746094 31.71875 206.816406 31.925781 C 206.886719 32.136719 207.007812 32.28125 207.179688 32.355469 C 207.351562 32.429688 207.632812 32.476562 208.03125 32.5 L 208.03125 32.871094 C 207.363281 32.832031 206.324219 32.8125 204.921875 32.8125 C 203.5 32.8125 202.40625 32.832031 201.636719 32.871094 L 201.636719 32.5 C 202.03125 32.476562 202.320312 32.429688 202.496094 32.355469 C 202.675781 32.28125 202.796875 32.136719 202.859375 31.925781 C 202.921875 31.71875 202.953125 31.375 202.953125 30.90625 L 202.953125 26.457031 L 198.785156 26.457031 L 198.785156 30.90625 C 198.785156 31.375 198.816406 31.71875 198.886719 31.925781 C 198.949219 32.136719 199.070312 32.28125 199.242188 32.355469 C 199.417969 32.429688 199.703125 32.476562 200.101562 32.5 L 200.101562 32.871094 C 199.378906 32.832031 198.347656 32.8125 197.003906 32.8125 C 195.507812 32.8125 194.410156 32.832031 193.707031 32.871094 L 193.707031 32.5 C 194.101562 32.476562 194.390625 32.429688 194.566406 32.355469 C 194.746094 32.28125 194.867188 32.136719 194.929688 31.925781 C 194.992188 31.71875 195.023438 31.375 195.023438 30.90625 L 195.023438 21.714844 C 195.023438 21.246094 194.988281 20.90625 194.917969 20.695312 C 194.847656 20.484375 194.730469 20.34375 194.558594 20.273438 C 194.386719 20.195312 194.101562 20.148438 193.707031 20.121094 L 193.707031 19.75 C 194.410156 19.789062 195.507812 19.808594 197.003906 19.808594 C 198.335938 19.808594 199.371094 19.789062 200.101562 19.75 L 200.101562 20.121094 C 199.703125 20.148438 199.414062 20.195312 199.234375 20.273438 C 199.058594 20.34375 198.9375 20.484375 198.878906 20.695312 C 198.816406 20.90625 198.785156 21.246094 198.785156 21.714844 L 198.785156 26.085938 L 202.953125 26.085938 L 202.953125 21.714844 C 202.953125 21.246094 202.917969 20.90625 202.847656 20.695312 C 202.777344 20.484375 202.660156 20.34375 202.488281 20.273438 C 202.316406 20.195312 202.03125 20.148438 201.636719 20.121094 L 201.636719 19.75 C 202.40625 19.789062 203.5 19.808594 204.921875 19.808594 C 206.324219 19.808594 207.363281 19.789062 208.03125 19.75 Z M 208.03125 20.121094 " fill-opacity="1" fill-rule="nonzero"/><path fill="#ffffff" d="M 240.878906 19.75 C 240.792969 21.121094 240.75 22.34375 240.75 23.417969 C 240.75 23.988281 240.765625 24.433594 240.808594 24.753906 L 240.378906 24.753906 C 239.972656 23.136719 239.449219 21.964844 238.804688 21.25 C 238.160156 20.53125 237.46875 20.171875 236.730469 20.171875 L 236.710938 20.171875 L 236.710938 30.777344 C 236.710938 31.296875 236.761719 31.671875 236.867188 31.90625 C 236.96875 32.140625 237.160156 32.296875 237.4375 32.378906 C 237.71875 32.460938 238.164062 32.5 238.769531 32.5 L 238.769531 32.871094 C 237.023438 32.832031 235.667969 32.8125 234.707031 32.8125 C 233.828125 32.8125 232.558594 32.832031 230.890625 32.871094 L 230.890625 32.5 C 231.492188 32.5 231.933594 32.460938 232.210938 32.378906 C 232.492188 32.296875 232.683594 32.140625 232.789062 31.90625 C 232.894531 31.671875 232.949219 31.296875 232.949219 30.777344 L 232.949219 20.171875 L 232.925781 20.171875 C 232.171875 20.171875 231.476562 20.53125 230.839844 21.246094 C 230.203125 21.957031 229.683594 23.125 229.28125 24.753906 L 228.851562 24.753906 C 228.886719 24.433594 228.90625 23.988281 228.90625 23.417969 C 228.90625 22.34375 228.867188 21.121094 228.78125 19.75 C 229.953125 19.789062 231.96875 19.808594 234.835938 19.808594 C 237.691406 19.808594 239.707031 19.789062 240.878906 19.75 Z M 240.878906 19.75 " fill-opacity="1" fill-rule="nonzero"/><path fill="#ffffff" d="M 254.273438 29.761719 C 254.273438 31.019531 254.316406 32.054688 254.402344 32.871094 C 253.5625 32.832031 252.152344 32.8125 250.164062 32.8125 C 247.269531 32.8125 245.109375 32.832031 243.679688 32.871094 L 243.679688 32.5 C 244.074219 32.476562 244.359375 32.429688 244.535156 32.355469 C 244.714844 32.28125 244.839844 32.136719 244.902344 31.925781 C 244.960938 31.71875 244.992188 31.375 244.992188 30.90625 L 244.992188 21.714844 C 244.992188 21.246094 244.957031 20.90625 244.886719 20.695312 C 244.820312 20.484375 244.699219 20.34375 244.527344 20.273438 C 244.355469 20.195312 244.074219 20.148438 243.679688 20.121094 L 243.679688 19.75 C 245.109375 19.789062 247.269531 19.808594 250.164062 19.808594 C 251.980469 19.808594 253.269531 19.789062 254.039062 19.75 C 253.949219 20.914062 253.902344 21.949219 253.902344 22.859375 C 253.902344 23.433594 253.921875 23.878906 253.960938 24.199219 L 253.539062 24.199219 C 253.3125 22.765625 252.898438 21.734375 252.292969 21.109375 C 251.6875 20.484375 250.964844 20.171875 250.128906 20.171875 L 249.886719 20.171875 C 249.550781 20.171875 249.304688 20.199219 249.148438 20.257812 C 248.996094 20.316406 248.890625 20.421875 248.832031 20.578125 C 248.78125 20.734375 248.753906 20.988281 248.753906 21.34375 L 248.753906 26.085938 L 248.941406 26.085938 C 249.578125 26.085938 250.128906 25.832031 250.585938 25.328125 C 251.042969 24.824219 251.332031 24.261719 251.457031 23.640625 L 251.886719 23.640625 C 251.847656 24.160156 251.828125 24.742188 251.828125 25.382812 L 251.828125 26.269531 C 251.828125 26.902344 251.867188 27.777344 251.945312 28.902344 L 251.515625 28.902344 C 251.40625 28.203125 251.117188 27.621094 250.648438 27.15625 C 250.1875 26.691406 249.617188 26.457031 248.941406 26.457031 L 248.753906 26.457031 L 248.753906 31.277344 C 248.753906 31.632812 248.78125 31.890625 248.832031 32.050781 C 248.890625 32.203125 248.996094 32.304688 249.148438 32.363281 C 249.304688 32.417969 249.550781 32.441406 249.886719 32.441406 L 250.492188 32.441406 C 251.210938 32.441406 251.890625 32.09375 252.53125 31.398438 C 253.175781 30.699219 253.632812 29.582031 253.902344 28.050781 L 254.332031 28.050781 C 254.292969 28.496094 254.273438 29.066406 254.273438 29.761719 Z M 254.273438 29.761719 " fill-opacity="1" fill-rule="nonzero"/><path fill="#ffffff" d="M 123.042969 13.363281 C 122.699219 13.363281 122.496094 13.535156 122.40625 13.878906 L 119.351562 29.339844 L 116.324219 13.878906 C 116.238281 13.535156 116.035156 13.363281 115.6875 13.363281 L 112.949219 13.363281 C 112.515625 13.363281 112.34375 13.59375 112.429688 13.996094 L 117.273438 35.917969 C 117.359375 36.261719 117.5625 36.433594 117.910156 36.433594 L 120.792969 36.433594 C 121.140625 36.433594 121.339844 36.261719 121.429688 35.917969 L 126.300781 13.996094 C 126.390625 13.59375 126.214844 13.363281 125.78125 13.363281 Z M 123.042969 13.363281 " fill-opacity="1" fill-rule="nonzero"/><path fill="#ffffff" d="M 129.675781 13.363281 C 129.355469 13.363281 129.214844 13.535156 129.214844 13.824219 L 129.214844 35.972656 C 129.214844 36.261719 129.355469 36.433594 129.675781 36.433594 L 132.675781 36.433594 C 132.960938 36.433594 133.136719 36.261719 133.136719 35.972656 L 133.136719 13.824219 C 133.136719 13.535156 132.960938 13.363281 132.675781 13.363281 Z M 129.675781 13.363281 " fill-opacity="1" fill-rule="nonzero"/><path fill="#ffffff" d="M 150.496094 36.433594 C 150.84375 36.433594 150.957031 36.261719 150.898438 35.945312 L 146.113281 13.765625 C 146.054688 13.476562 145.882812 13.363281 145.621094 13.363281 L 141.613281 13.363281 C 141.355469 13.363281 141.179688 13.476562 141.125 13.765625 L 136.335938 35.945312 C 136.25 36.261719 136.394531 36.433594 136.710938 36.433594 L 139.796875 36.433594 C 140.054688 36.433594 140.199219 36.289062 140.257812 36.03125 L 141.035156 31.820312 L 146.171875 31.820312 L 146.976562 36.03125 C 147.035156 36.289062 147.179688 36.433594 147.4375 36.433594 Z M 145.449219 28.472656 L 141.757812 28.472656 L 143.601562 18.410156 Z M 145.449219 28.472656 " fill-opacity="1" fill-rule="nonzero"/><path fill="#ffffff" d="M 181.144531 13.824219 C 181.144531 13.535156 181.03125 13.363281 180.683594 13.363281 L 170.070312 13.363281 C 169.808594 13.363281 169.636719 13.535156 169.636719 13.824219 L 169.636719 35.972656 C 169.636719 36.261719 169.808594 36.433594 170.070312 36.433594 L 180.683594 36.433594 C 181.03125 36.433594 181.144531 36.261719 181.144531 35.972656 L 181.144531 33.089844 C 181.144531 32.773438 181.03125 32.628906 180.683594 32.628906 L 173.472656 32.628906 L 173.472656 26.800781 L 178.980469 26.800781 C 179.269531 26.800781 179.441406 26.628906 179.441406 26.3125 L 179.441406 23.457031 C 179.441406 23.136719 179.269531 22.964844 178.980469 22.964844 L 173.472656 22.964844 L 173.472656 17.199219 L 180.683594 17.199219 C 181.03125 17.199219 181.144531 16.996094 181.144531 16.707031 Z M 181.144531 13.824219 " fill-opacity="1" fill-rule="nonzero"/><path fill="#ffffff" d="M 159.464844 43.078125 C 159.464844 43.863281 159.042969 44.289062 158.253906 44.289062 L 156.683594 44.289062 C 155.898438 44.289062 155.476562 43.863281 155.476562 43.078125 L 155.476562 40.78125 C 155.476562 40.480469 155.296875 40.300781 154.992188 40.300781 L 151.972656 40.300781 C 151.640625 40.300781 151.488281 40.480469 151.488281 40.78125 L 151.488281 43.925781 C 151.488281 46.765625 153 48.277344 155.839844 48.277344 L 159.222656 48.277344 C 162.03125 48.277344 163.574219 46.765625 163.574219 43.925781 L 163.574219 24.589844 C 163.574219 24.285156 163.390625 24.105469 163.089844 24.105469 L 159.949219 24.105469 C 159.617188 24.105469 159.464844 24.285156 159.464844 24.589844 Z M 159.464844 43.078125 " fill-opacity="1" fill-rule="nonzero"/><path fill="#ffffff" d="M 187.546875 5.925781 L 190.320312 5.925781 L 190.320312 43.953125 L 187.546875 43.953125 Z M 187.546875 5.925781 " fill-opacity="1" fill-rule="nonzero"/><path fill="#ffffff" d="M 220.914062 19.480469 C 222.234375 19.933594 223.304688 20.582031 224.125 21.425781 C 224.945312 22.269531 225.464844 23.265625 225.683594 24.40625 C 225.910156 25.546875 225.792969 26.777344 225.335938 28.097656 C 224.890625 29.382812 224.214844 30.421875 223.3125 31.222656 C 222.410156 32.023438 221.363281 32.523438 220.171875 32.722656 C 218.980469 32.929688 217.742188 32.808594 216.453125 32.367188 C 215.136719 31.914062 214.070312 31.261719 213.25 30.414062 C 212.429688 29.570312 211.90625 28.582031 211.683594 27.441406 C 211.457031 26.296875 211.578125 25.0625 212.035156 23.742188 C 212.476562 22.460938 213.148438 21.417969 214.050781 20.617188 C 214.957031 19.816406 216.003906 19.316406 217.199219 19.117188 C 218.394531 18.917969 219.632812 19.039062 220.914062 19.480469 Z M 220.742188 19.765625 C 220.171875 19.574219 219.574219 19.660156 218.957031 20.023438 C 218.335938 20.394531 217.746094 21.003906 217.191406 21.863281 C 216.636719 22.71875 216.152344 23.746094 215.738281 24.953125 C 215.324219 26.164062 215.089844 27.277344 215.039062 28.296875 C 214.988281 29.3125 215.105469 30.148438 215.386719 30.808594 C 215.667969 31.46875 216.082031 31.894531 216.632812 32.082031 C 217.203125 32.28125 217.796875 32.195312 218.414062 31.824219 C 219.03125 31.453125 219.621094 30.839844 220.179688 29.984375 C 220.738281 29.132812 221.222656 28.101562 221.636719 26.898438 C 222.050781 25.6875 222.28125 24.574219 222.332031 23.558594 C 222.382812 22.539062 222.269531 21.699219 221.988281 21.039062 C 221.707031 20.382812 221.292969 19.957031 220.742188 19.765625 Z M 220.742188 19.765625 " fill-opacity="1" fill-rule="nonzero"/><path fill="#ffffff" d="M 262.707031 19.289062 C 262.269531 19.398438 261.957031 19.507812 261.769531 19.617188 C 261.585938 19.730469 261.472656 19.894531 261.441406 20.113281 C 261.414062 20.332031 261.445312 20.675781 261.535156 21.140625 L 263.359375 30.523438 C 263.417969 30.867188 263.488281 31.113281 263.566406 31.257812 C 263.644531 31.40625 263.75 31.496094 263.878906 31.523438 C 264.011719 31.550781 264.21875 31.542969 264.503906 31.488281 L 265.109375 31.367188 C 265.527344 31.285156 265.945312 30.984375 266.363281 30.464844 C 266.777344 29.945312 267.113281 29.300781 267.378906 28.527344 C 267.644531 27.75 267.773438 26.972656 267.761719 26.195312 L 268.179688 26.109375 C 268.222656 26.554688 268.316406 27.117188 268.449219 27.796875 C 268.707031 29.109375 268.957031 30.183594 269.199219 31.015625 C 268.367188 31.136719 266.972656 31.382812 265.023438 31.761719 C 262.183594 32.3125 260.066406 32.746094 258.675781 33.054688 L 258.601562 32.6875 C 258.984375 32.589844 259.253906 32.488281 259.417969 32.382812 C 259.578125 32.277344 259.671875 32.117188 259.691406 31.894531 C 259.707031 31.675781 259.675781 31.335938 259.589844 30.875 L 257.839844 21.855469 C 257.75 21.390625 257.648438 21.0625 257.542969 20.871094 C 257.4375 20.679688 257.292969 20.566406 257.109375 20.527344 C 256.921875 20.484375 256.636719 20.488281 256.25 20.539062 L 256.179688 20.175781 C 256.871094 20.074219 257.949219 19.882812 259.417969 19.597656 C 260.816406 19.332031 261.886719 19.105469 262.636719 18.925781 Z M 262.707031 19.289062 " fill-opacity="1" fill-rule="nonzero"/></svg>